<svg width="626" height="178" viewBox="0 0 626 178" fill="none" xmlns="http://www.w3.org/2000/svg">
<path d="M3.456 176H32.832V166.928H14.04V132.8H3.456V176Z" fill="white"/>
<path d="M37.9091 176H48.4931V132.8H37.9091V176Z" fill="white"/>
<path d="M55.2009 154.4C55.2009 167.288 64.9209 177.44 78.6009 177.44C94.2969 177.44 101.785 166.784 101.785 154.04V149.936H78.0249V159.08H90.3369C90.0489 163.256 86.3769 167.432 78.8169 167.432C71.6169 167.432 65.9289 162.392 65.9289 154.4C65.9289 147.128 70.8969 141.368 78.6009 141.368C82.7049 141.368 86.3769 143.024 89.3289 145.688L96.6729 138.92C92.1369 134.312 86.5929 131.36 78.6009 131.36C64.9209 131.36 55.2009 141.512 55.2009 154.4Z" fill="white"/>
<path d="M108.714 176H119.298V158.936H136.218V176H146.73V132.8H136.218V149.792H119.298V132.8H108.714V176Z" fill="white"/>
<path d="M161.275 176H171.932V142.16H181.723V132.8H151.628V142.16H161.275V176Z" fill="white"/>
<path d="M464.56 104H475.072V83.12L490.408 60.8H478.456L469.816 73.76L461.176 60.8H449.224L464.56 83.12V104ZM467.224 101.984V82.616L453.616 62.816H459.52L469.312 77.288H470.32L480.112 62.816H486.016L472.408 82.616V101.984H467.224Z" fill="white"/>
<path d="M491.685 82.4C491.685 95.288 501.261 105.44 514.941 105.44C528.549 105.44 538.197 95.288 538.197 82.4C538.197 69.512 528.549 59.36 514.941 59.36C501.261 59.36 491.685 69.512 491.685 82.4ZM494.349 82.4C494.349 70.664 502.917 61.376 514.941 61.376C526.893 61.376 535.533 70.664 535.533 82.4C535.533 94.136 526.893 103.28 514.941 103.28C502.917 103.28 494.349 94.136 494.349 82.4ZM499.677 82.4C499.677 90.824 505.653 97.664 514.941 97.664C524.157 97.664 530.205 90.824 530.205 82.4C530.205 73.976 524.157 67.352 514.941 67.352C505.653 67.352 499.677 73.976 499.677 82.4ZM502.413 82.4C502.413 75.128 507.237 69.368 514.941 69.368C522.573 69.368 527.469 75.128 527.469 82.4C527.469 89.672 522.573 95.432 514.941 95.432C507.237 95.432 502.413 89.672 502.413 82.4Z" fill="white"/>
<path d="M545.534 89.456C545.534 99.392 552.59 105.44 562.454 105.44C571.958 105.44 579.59 99.68 579.59 89.456V60.8H569.006V87.872C569.006 93.632 566.486 95.648 562.454 95.648C558.782 95.648 556.046 93.632 556.046 87.872V60.8H545.534V89.456ZM548.198 89.456V62.816H553.382V87.872C553.382 95.144 557.27 97.664 562.454 97.664C568.142 97.664 571.67 95.144 571.67 87.872V62.816H576.926V89.456C576.926 98.384 570.446 103.424 562.454 103.424C554.174 103.424 548.198 98.168 548.198 89.456Z" fill="white"/>
<path d="M586.526 104H597.11V87.872L608.126 104H621.374L609.71 87.944C616.118 86.36 619.934 82.112 619.934 74.552C619.934 66.416 613.886 60.8 604.598 60.8H586.526V104ZM589.19 101.984V62.816H604.598C611.798 62.816 617.27 67.568 617.27 74.984C617.27 81.896 613.454 85.568 606.11 86.432V87.08L616.91 101.984H609.782L599.198 86.504H594.446V101.984H589.19ZM594.446 81.536H605.606C609.566 81.536 612.23 78.368 612.23 74.552C612.23 71.24 609.71 67.784 605.318 67.784H594.446V81.536ZM597.11 79.52V69.8H605.318C607.694 69.8 609.566 72.032 609.566 74.552C609.566 77.072 607.982 79.52 605.606 79.52H597.11Z" fill="white"/>
<path d="M7.456 44H18.04V28.592H33.952V19.376H18.04V10.16H35.32V0.799988H7.456V44ZM10.12 41.984V2.81599H32.656V8.14399H15.376V21.392H31.288V26.576H15.376V41.984H10.12Z" fill="white"/>
<path d="M39.7294 44H50.3134V0.799988H39.7294V44ZM42.3934 41.984V2.81599H47.6494V41.984H42.3934Z" fill="white"/>
<path d="M57.2373 44H67.8213V18.368L84.6693 44H95.6852V0.799988H85.1732V26.432L68.3972 0.799988H57.2373V44ZM59.9012 41.984V2.81599H66.7412L86.5413 32.912H87.8372V2.81599H93.0212V41.984H86.3252L66.2373 11.528H65.1572V41.984H59.9012Z" fill="white"/>
<path d="M102.589 44H117.637C131.461 44 140.245 33.848 140.245 22.328C140.245 10.16 130.381 0.799988 117.637 0.799988H102.589V44ZM105.253 41.984V2.81599H117.637C128.869 2.81599 137.581 11.312 137.581 22.328C137.581 32.768 129.805 41.984 117.637 41.984H105.253ZM110.509 36.368H117.421C125.701 36.368 132.037 30.824 132.037 22.328C132.037 14.48 126.493 8.35999 117.421 8.35999H110.509V36.368ZM113.173 34.352V10.376H117.421C124.837 10.376 129.373 15.632 129.373 22.328C129.373 29.6 124.189 34.352 117.421 34.352H113.173Z" fill="white"/>
<path d="M269.536 19.904V65.984C269.536 92.768 267.088 121.568 244.192 143.6C246.64 145.328 250.24 149.072 251.824 151.52C277.168 127.616 279.904 95.936 279.904 65.984V19.904H269.536ZM252.256 48.56C251.68 60.08 249.376 74.912 245.92 83.84L254.272 87.296C258.016 77.072 260.176 61.376 260.464 49.712L252.256 48.56ZM292.576 46.256C290.416 55.184 285.664 68.288 282.064 76.208L288.832 79.376C292.864 71.744 297.76 59.648 301.936 49.856L292.576 46.256ZM276.88 99.68L269.968 105.296C275.728 111.056 289.12 126.032 294.016 132.944L301.36 124.592C297.472 120.416 281.632 103.568 276.88 99.68ZM301.792 30.848V41.36H376.24V30.848H301.792ZM339.664 35.168V135.68C339.664 138.416 338.656 139.28 335.776 139.28C332.752 139.424 322.24 139.568 311.728 139.136C313.456 142.304 315.472 147.488 316.048 150.656C329.728 150.656 338.8 150.512 344.128 148.64C349.312 146.768 351.04 143.168 351.04 135.824V35.168H339.664Z" fill="white"/>
</svg>
